<?xml version="1.0" encoding="UTF-8"?>
<svg version="1.1" xmlns="http://www.w3.org/2000/svg" width="400" height="400">
<path d="M0 0 C1.98 0 3.96 0 6 0 C5.67 2.31 5.34 4.62 5 7 C6.06677476 7.00032605 6.06677476 7.00032605 7.15510052 7.00065869 C49.28348433 7.0141676 91.41177407 7.05361462 133.54009844 7.12685562 C138.59582378 7.13562262 143.65154946 7.14417238 148.70727539 7.15258789 C149.71380102 7.15426695 150.72032664 7.15594602 151.75735305 7.15767596 C168.06579339 7.18436298 184.37419858 7.19344226 200.68265852 7.19604143 C217.41030548 7.19909832 234.13785064 7.22101443 250.86545163 7.26052457 C261.19155464 7.28431752 271.51745457 7.29331028 281.84358124 7.28351311 C288.91970318 7.27820706 295.99564274 7.29118047 303.07171275 7.3186629 C307.15742671 7.3339872 311.24273266 7.34112281 315.32845879 7.32659721 C319.06748538 7.31348174 322.80571991 7.32326736 326.54465691 7.35143773 C328.54118349 7.36047511 330.53777438 7.34485373 332.53425378 7.32842034 C340.95316437 7.423988 340.95316437 7.423988 345.29724121 9.81427765 C347.90263615 14.68875838 347.69145663 19.16134331 347.63923645 24.61079407 C347.65176996 26.39354753 347.65176996 26.39354753 347.66455668 28.21231622 C347.68270941 31.50796462 347.67850088 34.80221549 347.6648711 38.09779513 C347.65560994 41.6526761 347.67515093 45.20741228 347.69119263 48.76225281 C347.71503904 54.92004474 347.7206398 61.0776365 347.71384621 67.23546791 C347.70405024 76.13860999 347.72177409 85.04152998 347.74621352 93.94463613 C347.78511743 108.3892838 347.8017669 122.83386799 347.80444336 137.27856445 C347.80709088 151.3101731 347.82020563 165.34170756 347.84741211 179.37329102 C347.84908549 180.23820612 347.85075887 181.10312122 347.85248295 181.99424586 C347.86094243 186.33327371 347.86960784 190.67230111 347.87837565 195.01132834 C347.95084623 231.00754113 347.98720938 267.003719 348 303 C348.66 302.67 349.32 302.34 350 302 C350 305.96 350 309.92 350 314 C349.34 314 348.68 314 348 314 C347.99786247 315.37396187 347.99786247 315.37396187 347.99568176 316.77568054 C347.97784383 325.41275456 347.93620689 334.04931657 347.86790943 342.68614483 C347.83363501 347.12636238 347.80852879 351.5662357 347.80444336 356.0065918 C347.8001613 360.29278259 347.77170712 364.57819684 347.72656822 368.86414528 C347.71359011 370.49833463 347.70928668 372.1326169 347.71384621 373.76685143 C347.71875043 376.05855262 347.69267334 378.34798255 347.65942383 380.6394043 C347.65276199 381.94290329 347.64610016 383.24640228 347.63923645 384.58940125 C346.82101212 388.95497656 345.42130174 390.22841936 342 393 C338.92895365 393.62674582 338.92895365 393.62674582 335.41727448 393.6292057 C334.44089693 393.64010651 334.44089693 393.64010651 333.4447946 393.65122753 C331.26001265 393.66949974 329.0769815 393.6521148 326.89221191 393.63491821 C325.31165242 393.64067861 323.73109962 393.64861918 322.15056086 393.65855443 C317.8045261 393.67946258 313.45903901 393.66909477 309.11300206 393.65362334 C304.4271592 393.64232991 299.74141179 393.65976255 295.05558777 393.67352295 C285.87498531 393.69578138 276.69458699 393.69094257 267.51397645 393.67645974 C260.05416649 393.66517774 252.59441382 393.6636321 245.13459778 393.66907883 C243.54333434 393.67022807 243.54333434 393.67022807 241.91992417 393.67140054 C239.76498948 393.67299913 237.6100548 393.6746202 235.45512015 393.6762635 C215.23797748 393.69052863 195.02094809 393.67411627 174.80382401 393.64726166 C157.44842359 393.62492221 140.09319037 393.62880212 122.73779297 393.65185547 C102.5940715 393.67859996 82.45044937 393.68915526 62.30671263 393.67379415 C60.15960917 393.67220137 58.01250571 393.67062952 55.86540222 393.66907883 C54.28068862 393.66792176 54.28068862 393.66792176 52.66396061 393.66674132 C45.211237 393.66242027 37.75857629 393.6697196 30.30586243 393.68147659 C21.22613157 393.69548512 12.14661689 393.69173636 3.06691086 393.66507287 C-1.56767419 393.65191248 -6.20189853 393.64682002 -10.83648109 393.66331863 C-15.07673206 393.67818542 -19.31628696 393.67008467 -23.55647451 393.64343087 C-25.092736 393.63783193 -26.62905594 393.640718 -28.16528004 393.65280981 C-30.25012018 393.66796481 -32.33256069 393.65248057 -34.41727448 393.6292057 C-35.5761286 393.62839394 -36.73498273 393.62758218 -37.92895365 393.62674582 C-42.01503139 392.79285019 -43.49775447 391.28790459 -46 388 C-46.62099248 385.43616265 -46.62099248 385.43616265 -46.61523914 382.65269756 C-46.62519439 381.58727346 -46.63514963 380.52184936 -46.64540654 379.42413968 C-46.63084234 378.25974655 -46.61627813 377.09535343 -46.60127258 375.89567566 C-46.60554471 374.65408717 -46.60981683 373.41249868 -46.61421841 372.1332863 C-46.62103198 368.68937565 -46.60540336 365.24688495 -46.58032811 361.803146 C-46.55873937 358.08881645 -46.5660424 354.37453089 -46.56983948 350.66015625 C-46.57246148 344.22566012 -46.5567717 337.79141746 -46.52865028 331.35698509 C-46.48801807 322.05391636 -46.47499337 312.75097022 -46.46871033 303.44782237 C-46.45776669 288.35422421 -46.42449065 273.26076114 -46.37719727 258.16723633 C-46.33130345 243.50513383 -46.29591068 228.84306802 -46.2746582 214.1809082 C-46.27334459 213.27716216 -46.27203097 212.37341612 -46.27067754 211.44228383 C-46.26415237 206.90846364 -46.25783382 202.3746432 -46.25161803 197.84082258 C-46.19978287 160.22711966 -46.11171573 122.61357035 -46 85 C-47.32 85 -48.64 85 -50 85 C-50 84.01 -50 83.02 -50 82 C-48.68 82 -47.36 82 -46 82 C-46.01665459 80.7199987 -46.01665459 80.7199987 -46.03364563 79.41413879 C-46.13389649 71.36605366 -46.20998957 63.31817868 -46.25906086 55.26961231 C-46.28513747 51.13186282 -46.32049885 46.99462992 -46.37719727 42.85717773 C-46.4315881 38.86304854 -46.46143511 34.86941569 -46.47438622 30.87494469 C-46.48361359 29.3522733 -46.50163316 27.82962861 -46.52865028 26.30716896 C-46.56503836 24.17138957 -46.56994183 22.03765161 -46.56762695 19.90161133 C-46.57873001 18.6869368 -46.58983307 17.47226227 -46.60127258 16.22077942 C-45.81994741 12.0355295 -44.3414569 10.5650972 -41 8 C-38.804245 7.39872742 -38.804245 7.39872742 -36.5769043 7.43237305 C-35.73641037 7.4327507 -34.89591644 7.43312836 -34.029953 7.43351746 C-32.69061455 7.4722271 -32.69061455 7.4722271 -31.32421875 7.51171875 C-30.3990596 7.51879349 -29.47390045 7.52586823 -28.52070618 7.53315735 C-25.57546997 7.56107185 -22.63215827 7.62380443 -19.6875 7.6875 C-17.68687648 7.7125867 -15.68622306 7.73539922 -13.68554688 7.75585938 C-8.78962684 7.81088892 -3.89513932 7.89714099 1 8 C0.505 4.04 0.505 4.04 0 0 Z M-31 23 C-31 40.16 -31 57.32 -31 75 C-31 176 -31 277 -31 378 C88.79 378 208.58 378 332 378 C332 260.85 332 143.7 332 23 C212.21 23 92.42 23 -31 23 Z " fill="#000000" transform="translate(50,0)"/>
<path d="M0 0 C21.24710776 -0.57880884 39.80991484 5.26874912 56.00390625 19.15625 C56.72964844 19.76984375 57.45539063 20.3834375 58.203125 21.015625 C70.11806895 31.97081905 79.15324887 49.09699027 80.20922852 65.30834961 C80.30818923 68.86410168 80.32591203 72.41168861 80.31640625 75.96875 C80.33251953 77.16306641 80.34863281 78.35738281 80.36523438 79.58789062 C80.37124018 90.62055364 78.43754083 100.47503784 73.31640625 110.28125 C72.96900391 110.95865234 72.62160156 111.63605469 72.26367188 112.33398438 C69.16399682 118.19264949 65.48214574 123.26204755 61.00390625 128.15625 C60.41351563 128.83816406 59.823125 129.52007812 59.21484375 130.22265625 C46.5446378 143.99813548 28.1454899 151.58739677 9.625 152.375 C-13.29113817 152.99303141 -32.65534296 146.79917406 -49.6262207 130.97558594 C-64.50693271 116.57775642 -71.75031001 97.96970122 -72.30859375 77.40625 C-71.91457183 55.07013244 -63.64358484 36.10518138 -47.99609375 20.15625 C-47.39410156 19.52976562 -46.79210937 18.90328125 -46.171875 18.2578125 C-33.95693089 6.54630427 -16.59155362 0.86527007 0 0 Z M-42.27734375 36.7890625 C-53.05287589 50.90179303 -57.84458867 67.46961158 -55.99609375 85.15625 C-53.2225838 103.06357253 -43.8018788 116.52790219 -29.58984375 127.40625 C-16.2974808 136.37459127 -0.32069031 139.12704296 15.375 136.6171875 C30.57060391 133.09413029 45.35653429 125.14560346 54.1328125 111.95703125 C59.95762611 102.43917943 64.27836946 92.4020702 65.00390625 81.15625 C65.08125 80.07537109 65.08125 80.07537109 65.16015625 78.97265625 C65.77280865 63.4266016 60.8243312 48.44715469 50.56640625 36.71875 C49.0645574 35.17916626 47.5448449 33.65670865 46.00390625 32.15625 C45.40191406 31.52203125 44.79992187 30.8878125 44.1796875 30.234375 C33.90709452 20.16233156 18.08324805 15.35544828 4.00390625 14.78125 C-13.84286578 15.5102848 -30.5507812 23.25532422 -42.27734375 36.7890625 Z " fill="#000000" transform="translate(275.99609375,41.84375)"/>
<path d="M0 0 C2.0165412 0.22750721 4.03366746 0.45129908 6.05371094 0.64526367 C25.80789419 2.54906196 43.80416444 8.05177279 57.24609375 23.59765625 C72.44419757 43.5649193 75.61636456 65.98215376 72.70263672 90.50244141 C69.87644735 107.18951109 59.83484231 124.15597759 46 134 C18.47547194 151.09981908 -19.70883753 145 -49 145 C-49 103.75 -49 62.5 -49 20 C-49.66 19.67 -50.32 19.34 -51 19 C-50.67 18.67 -50.34 18.34 -50 18 C-49.90019827 15.73097824 -49.87032191 13.45871075 -49.875 11.1875 C-49.87242188 9.94355469 -49.86984375 8.69960938 -49.8671875 7.41796875 C-49.97381085 4.67398553 -50.28338678 2.60350491 -51 0 C-44.21915837 -0.16817034 -37.43815817 -0.32807108 -30.65698242 -0.48217773 C-28.34932014 -0.53560261 -26.04170114 -0.59093234 -23.73413086 -0.64819336 C-20.42050512 -0.73009041 -17.10678495 -0.80517364 -13.79296875 -0.87890625 C-12.24128242 -0.91945885 -12.24128242 -0.91945885 -10.6582489 -0.96083069 C-9.21709465 -0.99097511 -9.21709465 -0.99097511 -7.74682617 -1.02172852 C-6.47774666 -1.05170677 -6.47774666 -1.05170677 -5.18302917 -1.08229065 C-3 -1 -3 -1 0 0 Z M-34 15 C-34 52.95 -34 90.9 -34 130 C7.23047032 132.15091469 7.23047032 132.15091469 42.86328125 115.33203125 C53.61489905 104.15130232 57.74000298 89.1383289 58.375 74 C57.68922625 57.65115378 52.89560662 43.08486447 41.3203125 31.1171875 C37.79784466 27.90308385 34.16374446 25.3156263 30 23 C29.32710937 22.62230469 28.65421875 22.24460937 27.9609375 21.85546875 C9.53234851 12.64117426 -14.70870226 15 -34 15 Z " fill="#000000" transform="translate(93,46)"/>
<path d="M0 0 C76.06741573 0 76.06741573 0 97 15 C97.64582031 15.46019531 98.29164063 15.92039063 98.95703125 16.39453125 C112.57794054 27.06373108 119.80412473 45.26126659 122 62 C123.29000722 84.36381296 120.76853489 106.14866671 105.4375 123.625 C103.98114921 125.10611867 102.50403313 126.56732611 101 128 C100.43796875 128.56976563 99.8759375 129.13953125 99.296875 129.7265625 C74.84230315 152.8753077 25.04376177 144 0 144 C0 96.48 0 48.96 0 0 Z M15 15 C15 52.95 15 90.9 15 130 C56.98020883 132.09623961 56.98020883 132.09623961 92.1484375 113.90234375 C102.52729201 102.96403425 106.59734836 89.64253932 106.4375 74.75 C106.42992676 73.75073486 106.42235352 72.75146973 106.41455078 71.72192383 C106.02163947 53.92189432 99.80103434 40.37218897 87 28 C68.03131031 11.48820726 37.2628682 15 15 15 Z " fill="#000000" transform="translate(44,214)"/>
<path d="M0 0 C1.65 0 3.3 0 5 0 C15.23876762 21.48857088 25.4370034 42.99186372 35.42431641 64.59863281 C37.97464906 70.1039372 40.54313918 75.60074004 43.11135864 81.09771729 C45.45161051 86.10741061 47.78920187 91.11834674 50.1270752 96.12915039 C50.71025571 97.37902097 51.29350796 98.62885807 51.87683105 99.87866211 C58.71462362 114.52984981 65.49245267 129.19851981 72 144 C66.39 144 60.78 144 55 144 C50.07276147 134.2440677 45.23737706 124.44512254 40.46539307 114.61239624 C39.82104158 113.28590885 39.17532645 111.960083 38.52825928 110.63491821 C37.60871853 108.75065051 36.69433892 106.86396338 35.78125 104.9765625 C35.24564453 103.87393066 34.71003906 102.77129883 34.15820312 101.63525391 C33 99 33 99 33 97 C12.54 97 -7.92 97 -29 97 C-29.33 98.65 -29.66 100.3 -30 102 C-31.01813346 104.33677483 -32.06975302 106.60406988 -33.203125 108.8828125 C-33.52279236 109.53772675 -33.84245972 110.19264099 -34.17181396 110.86740112 C-35.19244707 112.95597919 -36.22084457 115.04061011 -37.25 117.125 C-38.59089528 119.85562048 -39.9286333 122.58777894 -41.265625 125.3203125 C-41.74944641 126.30720062 -41.74944641 126.30720062 -42.24304199 127.31402588 C-44.9378442 132.82825239 -47.4946131 138.39686727 -50 144 C-55.94 144 -61.88 144 -68 144 C-62.52148234 131.70717579 -56.92055796 119.48464791 -51.11660767 107.34210205 C-49.04440818 103.00634227 -46.97978989 98.66697104 -44.9140625 94.328125 C-44.49786148 93.4543924 -44.08166046 92.58065979 -43.65284729 91.68045044 C-39.68156055 83.34013046 -35.74202749 74.98505899 -31.8125 66.625 C-31.16399152 65.24608886 -30.51547267 63.8671826 -29.86694336 62.48828125 C-26.84352133 56.05820592 -23.82420281 49.62621988 -20.80924988 43.19216919 C-19.38338267 40.15012822 -17.95598585 37.10880623 -16.52841187 34.06756592 C-15.85969236 32.64186126 -15.19170379 31.21581346 -14.52456665 29.78936768 C-9.84204267 19.77739305 -4.98421243 9.86526934 0 0 Z M2 32 C-8.02577477 52.62882033 -8.02577477 52.62882033 -17.9375 73.3125 C-18.26041016 73.98531006 -18.58332031 74.65812012 -18.91601562 75.35131836 C-20.49799608 78.5363664 -20.49799608 78.5363664 -21 82 C-5.49 82 10.02 82 26 82 C20.54592183 69.87982629 15.07912189 57.7813885 9.4375 45.75 C8.80390293 44.3958958 8.17043937 43.04172913 7.53710938 41.6875 C6.02625917 38.45762041 4.51367018 35.22855918 3 32 C2.67 32 2.34 32 2 32 Z " fill="#000000" transform="translate(278,214)"/>
<path d="M0 0 C-0.94983358 1.50539661 -1.91011891 3.00420347 -2.875 4.5 C-3.40867188 5.3353125 -3.94234375 6.170625 -4.4921875 7.03125 C-4.98976562 7.6809375 -5.48734375 8.330625 -6 9 C-6.66 9 -7.32 9 -8 9 C-8.33 9.99 -8.66 10.98 -9 12 C-11.6875 14.25 -11.6875 14.25 -15 16 C-15.92554688 15.83242188 -16.85109375 15.66484375 -17.8046875 15.4921875 C-21.62618269 14.90354643 -23.80762155 15.61129682 -27.4375 16.875 C-32.01503944 18.3938632 -36.20529874 19.55398128 -41 20 C-41 19.34 -41 18.68 -41 18 C-40.29875 17.731875 -39.5975 17.46375 -38.875 17.1875 C-35.83113724 15.93025234 -32.93322078 14.49654121 -30 13 C-26.67740323 11.33385818 -23.35015801 9.6773535 -20.01953125 8.02734375 C-18.61717391 7.33075652 -17.21483036 6.63414153 -15.8125 5.9375 C-15.10158203 5.58623047 -14.39066406 5.23496094 -13.65820312 4.87304688 C-12.97306641 4.53208984 -12.28792969 4.19113281 -11.58203125 3.83984375 C-10.96561768 3.53425537 -10.3492041 3.22866699 -9.71411133 2.91381836 C-3.85735546 -0.2085057 -3.85735546 -0.2085057 0 0 Z " fill="#FFFFFF" transform="translate(159,25)"/>
<path d="M0 0 C1.8830622 3.26397448 2.67342446 6.24438133 3 10 C1 12 1 12 -4 13 C-4.33 9.37 -4.66 5.74 -5 2 C-3.35 1.34 -1.7 0.68 0 0 Z " fill="#FFFFFF" transform="translate(82,25)"/>
<path d="M0 0 C1.98 0 3.96 0 6 0 C5.67 2.31 5.34 4.62 5 7 C3.68 7.33 2.36 7.66 1 8 C0.67 5.36 0.34 2.72 0 0 Z " fill="#FFFFFF" transform="translate(50,0)"/>
<path d="M0 0 C0.33 0 0.66 0 1 0 C1 3.96 1 7.92 1 12 C0.01 11.67 -0.98 11.34 -2 11 C-2.25 3.375 -2.25 3.375 0 0 Z " fill="#FFFFFF" transform="translate(399,302)"/>
<path d="M0 0 C0.99 0.33 1.98 0.66 3 1 C2.67 1.66 2.34 2.32 2 3 C1.34 3 0.68 3 0 3 C0 2.01 0 1.02 0 0 Z " fill="#FFFFFF" transform="translate(91,42)"/>
<path d="M0 0 C1.32 0.33 2.64 0.66 4 1 C2.68 1 1.36 1 0 1 C0 0.67 0 0.34 0 0 Z " fill="#FFFFFF" transform="translate(35,67)"/>
<path d="M0 0 C3 1 3 1 3 1 Z " fill="#FFFFFF" transform="translate(185,0)"/>
<path d="M0 0 C2 1 2 1 2 1 Z " fill="#FFFFFF" transform="translate(115,34)"/>
<path d="" fill="#FFFFFF" transform="translate(0,0)"/>
<path d="" fill="#FFFFFF" transform="translate(0,0)"/>
<path d="" fill="#FFFFFF" transform="translate(0,0)"/>
<path d="" fill="#FFFFFF" transform="translate(0,0)"/>
<path d="" fill="#FFFFFF" transform="translate(0,0)"/>
</svg>
